<svg width="64" height="64" viewBox="0 0 64 64" fill="none" xmlns="http://www.w3.org/2000/svg">
<path d="M59.6945 28.5091C59.1127 27.8109 58.4145 27.4618 57.8327 27.2291H57.7163C58.0654 26.88 58.4145 26.4145 58.6472 25.9491C59.1127 24.9018 59.229 23.6218 58.88 22.4582C58.5309 21.2945 57.8327 20.2473 57.0181 19.5491C56.2036 18.8509 55.2727 18.6182 54.4581 18.5018C54.2254 18.5018 54.109 18.5018 53.8763 18.3854C53.8763 18.3854 53.8763 18.3854 53.9927 18.2691C54.5745 17.5709 55.1563 16.64 55.1563 15.36C55.1563 14.08 54.5745 12.8 53.5272 11.8691C52.4799 10.9382 51.1999 10.4727 50.0363 10.3564C48.989 10.24 48.1745 10.4727 47.3599 10.7054C47.3599 10.5891 47.4763 10.4727 47.4763 10.3564C47.8254 8.84363 47.0109 6.51636 44.7999 5.46909C43.7527 4.88727 42.589 4.88727 41.6581 5.00363C40.7272 5.23636 39.9127 5.58545 39.3309 6.16727C38.749 6.74909 38.3999 7.3309 38.2836 7.67999C38.1672 7.3309 37.9345 6.86545 37.7018 6.39999C37.3527 5.70181 36.6545 5.00363 35.8399 4.42181C34.909 4.07272 33.7454 3.72363 32.5818 3.72363C31.3018 3.72363 30.1381 4.30545 29.3236 4.88727C28.2763 5.70181 27.5781 6.86545 27.3454 8.14545C26.7636 7.09818 25.5999 6.4 24.4363 6.05091C23.2727 5.81818 22.109 5.93454 21.0618 6.4C20.0145 6.98181 19.0836 7.79636 18.6181 8.61091C18.1527 9.54181 17.9199 10.3564 17.9199 11.1709C17.5709 11.0545 17.2218 10.9382 16.6399 10.8218C15.9418 10.7055 15.2436 10.5891 14.3127 10.8218C13.3818 10.9382 12.2181 11.6364 11.6363 12.5673C10.9381 13.4982 10.7054 14.6618 10.8218 15.5927C10.9381 16.5236 11.2872 17.3382 11.6363 17.92C11.869 18.2691 12.1018 18.6182 12.3345 18.8509C12.1018 18.7345 11.869 18.7345 11.5199 18.6182C10.7054 18.5018 9.77449 18.5018 8.61086 18.9673C7.56358 19.4327 6.51631 20.2473 5.93449 21.6436C5.46904 23.04 5.81813 24.32 6.39995 25.3673C6.74904 25.9491 7.09813 26.4145 7.56358 26.7636C7.09813 26.7636 6.51631 26.9964 5.81813 27.4618C5.11995 27.9273 4.42176 28.6255 3.95631 29.5564C3.49086 30.4873 3.14176 31.7673 3.37449 33.0473C3.72358 34.9091 5.11995 36.5382 6.8654 37.2364C6.63267 37.4691 6.28358 37.8182 5.93449 38.4C5.5854 39.0982 5.35267 39.9127 5.35267 40.96C5.35267 42.0073 5.70176 43.0545 6.51631 43.9854C7.67995 45.4982 9.54176 46.1964 11.2872 45.9636C11.1709 46.3127 11.1709 46.6618 11.1709 47.2436C11.2872 48.4073 11.869 50.1527 13.3818 51.2C14.8945 52.3636 16.6399 52.48 17.8036 52.3636C18.1527 52.3636 18.3854 52.2473 18.6181 52.1309V52.2473C18.5018 53.0618 18.6181 54.1091 19.1999 55.1564C19.7818 56.2036 20.9454 57.0182 22.109 57.3673C24.3199 58.0654 26.5309 57.6 27.8109 56.6691C27.9272 57.1345 28.1599 57.6 28.7418 58.2982C29.2072 58.88 30.0218 59.5782 30.9527 59.9273C31.9999 60.3927 33.1636 60.5091 34.4436 60.16C35.7236 59.8109 36.7709 58.9964 37.3527 58.0655C37.7018 57.6 37.8181 57.1345 37.9345 56.6691C38.1672 56.9018 38.6327 57.2509 39.0981 57.4836C39.7963 57.8327 40.6109 58.0655 41.6581 58.0655C42.7054 58.0655 43.869 57.7164 44.7999 56.9018C45.7309 56.2036 46.429 55.04 46.6618 54.1091C46.7781 53.5273 46.7781 52.9455 46.7781 52.3636C47.0109 52.48 47.3599 52.5964 47.709 52.7127C48.4072 52.9455 49.3381 52.9455 50.269 52.5964C51.1999 52.3636 52.2472 51.7818 52.9454 50.7345C53.6436 49.8036 53.9927 48.64 53.9927 47.7091C53.9927 46.8945 53.8763 46.08 53.6436 45.4982C54.6909 45.6145 55.9709 45.3818 57.1345 44.5673C57.949 44.1018 58.6472 43.1709 59.1127 42.24C59.5781 41.1927 59.6945 40.1455 59.5781 39.2146C59.4618 38.2836 59.1127 37.4691 58.7636 36.8873C58.6472 36.6545 58.5309 36.5382 58.4145 36.4218C58.7636 36.3055 59.1127 35.9564 59.5781 35.4909C60.3927 34.56 60.9745 32.9309 60.7418 30.9527C60.6254 30.1382 60.2763 29.2073 59.6945 28.5091ZM58.5309 34.9091C58.2981 35.3745 58.0654 35.7236 57.949 35.9564C57.4836 35.4909 57.1345 35.3745 57.0181 35.4909C56.9018 35.6073 57.2509 36.3055 57.7163 37.4691C58.0654 38.5164 58.2981 40.1455 57.5999 41.6582C56.9018 43.1709 55.5054 44.1018 54.4581 44.4509C53.9927 44.6836 53.5272 44.8 53.1781 44.8C52.7127 43.8691 52.2472 43.4036 52.1309 43.52C51.8981 43.6364 52.1309 44.4509 52.3636 45.6145C52.4799 46.7782 52.4799 48.5236 51.549 49.8036C50.6181 51.0836 48.8727 51.5491 47.8254 51.5491C47.3599 51.5491 47.0109 51.5491 46.6618 51.4327C46.3127 50.0364 45.9636 49.3382 45.7309 49.3382C45.4981 49.3382 45.4981 50.2691 45.4981 51.5491C45.4981 52.8291 45.2654 54.5745 43.869 55.5055C42.4727 56.5527 40.7272 56.5527 39.5636 56.2036C38.9818 56.0873 38.5163 55.8545 38.1672 55.7382C38.1672 55.5055 38.2836 55.3891 38.2836 55.2727C38.3999 53.76 38.0508 52.8291 37.9345 52.8291C37.7018 52.8291 37.5854 53.76 37.2363 55.04C36.8872 56.32 35.9563 57.9491 34.2108 58.4145C32.4654 58.88 30.7199 58.0655 29.6727 57.2509C29.0908 56.7855 28.7418 56.4364 28.3927 56.0873C28.8581 55.6218 29.2072 55.1564 29.3236 54.8073C29.4399 54.3418 29.4399 54.1091 29.3236 54.1091C29.0908 53.9927 28.6254 54.8073 27.4618 55.2727C26.2981 55.8545 24.4363 56.0873 22.5745 55.5055C21.6436 55.2727 20.9454 54.8073 20.4799 54.1091C20.0145 53.5273 19.8981 52.7127 19.7818 52.1309C19.6654 50.8509 20.1308 50.0364 20.0145 49.92C19.8981 49.8036 19.6654 49.92 19.4327 50.2691C19.3163 50.5018 19.0836 50.7345 18.9672 51.0836C18.7345 51.0836 18.269 51.0836 17.8036 50.9673C16.8727 50.8509 15.5927 50.5018 14.429 49.6873C13.2654 48.8727 12.6836 47.7091 12.3345 46.7782C12.1018 46.3127 12.1018 45.8473 11.9854 45.6145C13.3818 45.2655 13.9636 44.6836 13.8472 44.4509C13.7309 44.2182 12.9163 44.5673 11.7527 44.4509C10.589 44.4509 8.84358 43.8691 7.91267 42.5891C6.8654 41.3091 6.8654 39.5636 7.09812 38.4C7.21449 37.8182 7.44721 37.3527 7.56358 37.0036C9.0763 37.4691 10.1236 37.0036 10.0072 36.7709C10.0072 36.5382 9.0763 36.5382 7.91267 35.84C6.74903 35.2582 5.35267 33.9782 5.00358 32.2327C4.65449 30.4873 5.70176 28.7418 6.63267 27.8109C7.21449 27.2291 7.79631 26.88 8.1454 26.6473C8.26176 26.7636 8.37812 26.88 8.49449 26.88C9.89085 27.6946 11.0545 27.5782 11.0545 27.3455C11.0545 27.1127 10.2399 26.7636 9.19267 25.9491C8.72721 25.4836 8.1454 24.9018 7.91267 24.0873C7.56358 23.3891 7.44721 22.3418 7.67994 21.6436C7.91267 20.8291 8.61085 20.2473 9.4254 19.8982C10.1236 19.5491 10.9381 19.4327 11.6363 19.3164C13.0327 19.2 13.9636 19.4327 13.9636 19.2C13.9636 19.0836 13.8472 18.8509 13.3818 18.7346C13.3818 18.3855 13.0327 17.8036 12.7999 16.9891C12.4508 15.9418 12.2181 14.3127 13.149 13.1491C13.6145 12.5673 14.1963 12.1018 14.7781 11.9855C15.4763 11.7527 16.1745 11.7527 16.7563 11.7527C17.3381 11.7527 17.6872 11.6364 18.0363 11.6364C18.1527 12.5673 18.5018 13.1491 18.6181 13.0327C18.8508 13.0327 18.8508 12.1018 19.0836 10.9382C19.4327 9.77455 20.2472 8.26182 21.8763 7.56364C23.5054 6.7491 25.1345 7.21455 26.0654 7.79637C27.1127 8.37819 27.4618 9.19273 27.6945 9.07637C27.9272 9.07637 28.0436 8.14546 28.7418 7.21455C29.4399 6.16728 30.8363 5.00364 32.6981 5.00364C34.5599 5.00364 36.0727 6.05092 36.8872 6.98182C37.8181 7.91273 38.1672 8.72728 38.3999 8.61092C38.3999 8.96 38.3999 8.84363 38.3999 8.49454C38.6327 8.49454 39.0981 7.91272 40.029 7.44727C41.0763 6.86545 42.7054 6.51636 44.1018 7.33091C45.6145 8.02909 46.3127 9.54181 46.3127 10.5891C46.3127 11.0545 46.1963 11.4036 46.0799 11.7527C45.2654 12.3345 44.9163 12.8 45.0327 12.9164C45.149 13.1491 45.9636 12.5673 47.3599 12.3345C48.7563 11.9855 50.7345 11.9855 52.2472 13.3818C52.9454 14.08 53.4109 14.8945 53.5272 15.7091C53.6436 16.5236 53.2945 17.2218 53.0618 17.8036C52.3636 18.9673 51.4327 19.2 51.4327 19.5491C51.4327 19.6655 51.6654 19.7818 52.2472 19.6655C52.4799 19.6655 52.5963 19.5491 52.829 19.4327C53.1781 19.5491 53.6436 19.6655 54.109 19.8982C55.2727 20.3636 56.7854 21.4109 57.2509 23.1564C57.4836 23.9709 57.4836 24.9018 57.1345 25.6C56.9018 26.2982 56.4363 26.88 55.9709 27.3454C55.0399 28.16 54.2254 28.3927 54.2254 28.6254C54.2254 28.8582 55.1563 29.0909 56.5527 28.3927C56.7854 28.5091 57.0181 28.5091 57.2509 28.7418C57.5999 28.9745 58.0654 29.3236 58.2981 29.7891C58.6472 30.2545 58.7636 30.9527 58.8799 31.6509C59.3454 32.6982 58.9963 34.0945 58.5309 34.9091Z" fill="#E35420"/>
<path d="M39.7963 25.7164C39.4472 25.3673 35.9563 28.8582 31.9999 33.28C30.9526 34.4436 30.1381 35.6073 29.3236 35.7236C28.509 35.9564 27.4617 35.3746 26.7636 34.7927C25.2508 33.7455 24.4363 32.8146 24.2036 32.9309C23.9708 33.0473 24.5526 34.2109 25.949 35.7236C26.2981 36.0727 26.7636 36.4218 27.3454 36.7709C27.9272 37.12 28.7417 37.3527 29.5563 37.2364C30.3708 37.12 31.1854 36.5382 31.7672 36.0727C32.349 35.4909 32.8145 35.0255 33.2799 34.4436C37.2363 29.9055 40.1454 25.9491 39.7963 25.7164Z" fill="#E35420"/>
<path d="M50.3854 30.2545C50.3854 29.44 50.2691 28.8582 50.1527 28.3927C50.0363 27.6945 49.8036 27.3454 49.8036 27.3454C49.6873 27.3454 49.92 28.2763 49.8036 30.0218C49.3382 30.0218 48.7563 30.1382 48.0582 30.1382C47.5927 30.1382 47.1273 30.1382 46.6618 30.2545C46.6618 29.6727 46.5454 29.2073 46.4291 28.6254C46.8945 28.7418 47.4763 28.7418 48.0582 28.5091C48.7563 28.16 49.3382 27.6945 49.5709 27.2291C49.5709 27.3454 49.6873 27.4618 49.6873 27.4618C49.6873 27.4618 49.6873 27.2291 49.6873 26.9964C49.8036 26.6473 49.6873 26.4145 49.5709 26.4145C49.5709 26.0654 49.3382 25.7164 49.2218 25.1345C49.1054 24.9018 49.1054 24.6691 48.9891 24.32C48.8727 24.0873 48.7563 23.7382 48.5236 23.3891C47.36 20.9454 44.8 17.5709 40.2618 15.4764C38.0509 14.4291 35.3745 13.7309 32.4654 13.7309C29.5563 13.7309 26.4145 14.5454 23.6218 16.4073C20.8291 18.1527 18.5018 20.9454 16.8727 24.0873C15.36 27.3454 14.6618 31.1854 15.5927 35.0254C16.9891 41.8909 23.3891 47.5927 30.72 48.4073C33.9782 48.7563 37.2363 48.2909 39.9127 47.0109C42.5891 45.8473 44.8 44.1018 46.3127 42.24C47.9418 40.2618 48.7563 38.2836 49.4545 36.4218C50.0363 34.56 50.3854 32.5818 50.3854 30.6036C50.3854 30.3709 50.3854 30.2545 50.3854 30.2545ZM49.2218 26.1818C48.7563 26.2982 48.1745 26.6473 47.4763 26.88C47.0109 27.1127 46.5454 27.2291 46.08 27.3454C45.8473 26.5309 45.4982 25.8327 45.1491 25.0182C45.6145 25.0182 46.08 24.9018 46.5454 24.5527C47.1273 24.32 47.5927 23.8545 47.8254 23.2727C47.8254 23.3891 47.9418 23.5054 47.9418 23.5054C48.64 24.6691 48.9891 25.4836 49.2218 26.1818ZM47.2436 22.3418C46.8945 22.4582 46.5454 22.6909 45.8473 23.1564C45.3818 23.3891 44.9163 23.6218 44.6836 23.8545C44.5673 23.6218 44.4509 23.5054 44.3345 23.2727C43.9854 22.8073 43.7527 22.3418 43.4036 21.9927C43.7527 21.8764 43.9854 21.6436 44.2182 21.2945C44.6836 20.7127 44.8 20.1309 44.8 19.6654C45.7309 20.48 46.5454 21.4109 47.2436 22.3418ZM39.4473 17.8036C39.4473 18.0364 39.3309 18.2691 39.3309 18.5018C38.6327 18.0364 37.8182 17.6873 37.0036 17.3382C37.12 16.9891 37.2364 16.64 37.2364 16.1745C37.2364 15.9418 37.2364 15.7091 37.12 15.5927C38.0509 15.8254 38.9818 16.0582 39.7964 16.4073C39.68 16.7563 39.5636 17.2218 39.4473 17.8036ZM41.0763 18.1527C41.1927 17.8036 41.1927 17.4545 41.0763 17.1054C42.1236 17.6873 43.0545 18.2691 43.9854 18.9673C43.6363 19.2 43.4036 19.7818 42.9382 20.2473C42.7054 20.48 42.5891 20.7127 42.3563 20.9454C41.7745 20.3636 41.1927 19.8982 40.6109 19.4327C40.7273 18.9673 40.96 18.6182 41.0763 18.1527ZM32.4654 15.0109C33.5127 15.0109 34.56 15.1273 35.6073 15.2436V16.1745V16.7563C35.4909 16.7563 35.3745 16.64 35.2582 16.64C34.3273 16.4073 33.28 16.1745 32.3491 16.0582V15.9418C32.3491 15.4763 32.2327 15.1273 32 14.8945C32.2327 15.0109 32.3491 15.0109 32.4654 15.0109ZM30.4873 16.0582C28.9745 16.0582 27.5782 16.2909 26.2982 16.64C25.9491 16.7564 25.6 16.8727 25.2509 16.9891C27.1127 15.9418 28.9745 15.36 30.9527 15.1273C30.8363 15.36 30.72 15.7091 30.72 16.0582C30.72 16.0582 30.6036 16.0582 30.4873 16.0582ZM30.9527 46.7782C24.2036 45.9636 18.5018 40.7273 17.2218 34.56C16.4073 31.1854 17.1054 27.6945 18.3854 24.6691C19.0836 23.2727 19.7818 22.1091 20.7127 20.9454C20.9454 20.7127 21.1782 20.5964 21.5273 20.3636C22.5745 19.5491 24.32 18.3854 26.6473 17.8036C28.9745 17.2218 31.8836 17.2218 34.9091 18.1527C37.9345 19.0836 40.96 21.0618 42.8218 24.0873C43.7527 25.6 44.4509 27.2291 44.8 28.9745C45.1491 30.6036 45.2654 32.3491 45.0327 33.8618C44.6836 37.0036 43.52 39.7964 42.24 41.7745C40.96 43.7527 39.3309 45.0327 38.2836 45.8473C38.1673 45.9636 37.9345 46.08 37.8182 46.1964C35.7236 46.8945 33.3963 47.1273 30.9527 46.7782ZM40.7273 45.0327C41.5418 44.3345 42.3563 43.52 43.1709 42.4727C43.2873 42.24 43.4036 42.1236 43.52 41.8909L43.7527 42.1236C43.9854 42.24 44.1018 42.3564 44.3345 42.3564C43.4036 43.4036 42.1236 44.3345 40.7273 45.0327ZM45.4982 41.4254L45.3818 41.5418C45.2654 41.3091 45.1491 41.0763 44.9163 40.8436C44.8 40.7273 44.5673 40.7273 44.4509 40.6109C44.8 39.9127 45.1491 39.2145 45.4982 38.5163C45.6145 38.6327 45.7309 38.7491 45.9636 38.7491C46.5454 38.9818 47.0109 38.9818 47.36 38.8654C46.7782 39.68 46.1963 40.6109 45.4982 41.4254ZM47.5927 38.1673C47.4763 37.8182 47.0109 37.4691 46.5454 37.2364C46.3127 37.12 46.1963 37.12 45.9636 37.0036C46.1963 36.4218 46.3127 35.7236 46.4291 35.0254C47.1273 35.4909 48.0582 35.7236 48.7563 35.4909C48.64 35.7236 48.64 35.84 48.5236 36.0727C48.2909 36.7709 47.9418 37.4691 47.5927 38.1673ZM49.1054 34.4436C48.7563 34.2109 48.2909 33.9782 47.8254 33.8618C47.36 33.7454 47.0109 33.7454 46.6618 33.7454C46.7782 33.0473 46.7782 32.3491 46.7782 31.5345C47.1273 31.6509 47.5927 31.7673 48.1745 31.7673C48.8727 31.7673 49.3382 31.5345 49.8036 31.1854V31.3018C49.5709 32.3491 49.4545 33.3963 49.1054 34.4436Z" fill="#E35420"/>
</svg>