<svg width="72" height="72" viewBox="0 0 72 72" fill="none" xmlns="http://www.w3.org/2000/svg">
<path d="M67.9418 32.0727C67.9418 29.1927 67.68 26.5745 67.5491 23.9564C67.2872 21.4691 67.1563 18.9818 66.24 16.8873C65.3236 14.7927 63.6218 13.3527 62.1818 12.4364C60.6109 11.52 59.3018 10.9964 57.9927 10.7345C57.2072 10.6036 56.5527 10.6036 56.0291 10.6036C55.3745 10.3418 54.8509 10.3418 54.4582 10.2109C53.1491 9.94909 52.4945 9.94909 52.4945 10.08C52.4945 10.2109 53.1491 10.2109 54.3272 10.6036C54.4582 10.6036 54.4582 10.6036 54.5891 10.7345C54.72 10.8655 54.8509 10.8655 55.1127 10.9964C55.2436 11.1273 55.5054 11.1273 55.7672 11.1273C56.0291 11.2582 56.16 11.2582 56.4218 11.3891C57.2072 11.7818 58.1236 12.3055 58.9091 13.2218C59.6945 14.0073 60.2182 15.1855 60.6109 16.6255C61.0036 17.9345 61.0036 19.5055 61.1345 21.2073C61.2654 22.9091 61.2654 24.7418 61.3963 26.7055C61.5272 29.9782 61.5272 33.12 61.3963 36C61.3963 37.0473 61.2654 38.2255 61.2654 39.4036C61.2654 40.5818 61.3963 41.76 61.1345 42.8073C61.0036 43.8545 60.48 44.9018 59.6945 45.5564C58.1236 47.1273 55.6363 48.0436 53.1491 48.1745C50.5309 48.4364 47.9127 48.0436 45.0327 47.7818C42.1527 47.52 39.2727 47.3891 36.1309 47.7818C34.6909 47.9127 33.12 48.0436 31.5491 48.4364C30.7636 48.6982 29.8473 49.0909 29.1927 49.6145C26.5745 51.84 25.92 55.3745 24.6109 57.9927C24.48 58.2545 24.2182 58.6473 24.0873 58.9091C23.9564 59.04 23.9564 59.04 23.9564 59.04C23.9564 59.04 23.8254 58.9091 23.6945 58.6473C23.5636 58.3855 23.4327 58.1236 23.3018 57.7309C23.04 57.0764 22.7782 56.2909 22.3854 55.5055C21.7309 53.9345 21.2073 52.3636 20.0291 50.9236C19.5054 50.2691 18.5891 49.4836 17.5418 49.2218C16.4945 48.96 15.5782 49.0909 14.6618 49.2218C12.96 49.6145 11.52 50.0073 10.4727 49.6145C9.29454 49.2218 8.63999 48.0436 8.24726 46.6036C8.11636 45.9491 7.98545 45.1636 7.85454 44.3782C7.72363 43.5927 7.59272 42.8073 7.46181 42.1527C6.54545 36.1309 6.28363 30.24 6.02181 24.6109C5.8909 21.7309 5.62908 18.9818 6.41454 16.7564C6.93817 15.5782 7.59272 14.6618 8.37817 13.7455C9.0327 13.0909 10.08 12.5673 11.2582 12.0436C15.3163 10.4727 19.8982 10.6036 24.8727 10.2109C33.3818 9.68728 40.32 9.81819 45.1636 9.94909C50.0072 10.08 52.6254 10.2109 52.6254 10.08C52.6254 10.08 51.9709 9.94909 50.6618 9.68728C49.3527 9.55637 47.52 9.29455 45.1636 9.16364C40.32 8.77091 33.3818 8.50909 24.8727 8.90182C22.7782 9.03273 20.5527 9.03273 18.1963 9.16364C15.5782 9.29455 13.0909 9.68728 10.6036 10.6036C9.42543 11.1273 8.11634 11.7818 7.06906 12.8291C6.02179 13.8764 5.23634 15.0545 4.7127 16.3636C4.18906 17.8036 3.92725 19.2436 3.92725 20.6836C3.92725 22.1236 4.05816 23.5636 4.05816 24.8727C4.31997 30.5018 4.58179 36.5236 5.49815 42.6764C5.62906 43.4618 5.75997 44.2473 5.89088 45.0327C6.1527 46.6036 6.41452 48.4364 7.46179 49.7455C7.98543 50.5309 8.77088 51.1855 9.81815 51.5782C10.7345 51.9709 11.7818 51.84 12.6982 51.7091C13.6145 51.5782 14.4 51.3164 15.0545 51.1855C15.84 51.0545 16.4945 50.9236 17.0182 51.1855C17.5418 51.3164 18.0654 51.7091 18.4582 52.2327C19.7672 53.9345 20.5527 56.5527 21.4691 58.5164C21.6 58.9091 21.8618 59.3018 22.1236 59.6945C22.3854 60.0873 22.7782 60.6109 23.5636 60.8727H24.0872C24.2182 61.1345 24.3491 61.3964 24.48 61.6582C24.7418 62.0509 25.0036 62.5745 25.6581 62.9673C26.0509 63.0982 26.4436 63.0982 26.8363 62.9673C27.8836 62.5745 28.5381 61.2655 29.1927 60.2182C30.1091 58.9091 31.2872 57.3382 32.8581 56.0291C34.0363 54.9818 35.7381 54.3273 37.5709 53.9345H37.8327C38.2254 53.9345 38.6181 53.8036 39.0109 53.8036C41.4981 53.5418 44.1163 53.5418 46.8654 53.6727C49.6145 53.8036 52.6254 54.4582 55.8981 54.0655C57.4691 53.9346 59.04 53.5418 60.6109 52.8873C62.1818 52.3636 63.7527 51.7091 65.1927 50.4C66.6327 49.0909 67.2872 47.3891 67.68 45.6873C68.3345 42.6764 68.0727 39.2727 68.0727 36.2618C67.9418 35.0836 67.9418 33.5127 67.9418 32.0727ZM65.0618 42.6764C64.2763 42.0218 63.36 41.6291 62.7054 41.6291C62.7054 40.8436 62.7054 40.1891 62.7054 39.5345C62.7054 39.0109 62.7054 38.4873 62.7054 37.8327C63.0981 38.0945 63.6218 38.4873 64.2763 38.7491C65.0618 39.1418 65.8472 39.5345 66.24 39.6655V41.1055C66.24 42.0218 66.1091 42.9382 66.1091 43.8545C65.7163 43.3309 65.4545 42.9382 65.0618 42.6764ZM62.1818 22.3855C62.7054 22.6473 63.4909 23.04 64.2763 23.4327C64.9309 23.8255 65.4545 24.0873 65.9781 24.3491C65.9781 25.2655 66.1091 26.3127 66.1091 27.36C65.9781 27.2291 65.8472 27.0982 65.5854 27.0982C64.2763 26.4436 62.9672 26.3127 62.4436 26.5745C62.5745 26.4436 62.1818 22.5164 62.1818 22.3855ZM65.8472 22.2545C65.7163 22.1236 65.4545 21.9927 65.1927 21.8618C64.0145 21.2073 62.7054 21.2073 62.1818 21.4691C62.0509 20.2909 62.0509 19.2436 61.7891 17.9346C62.1818 18.3273 62.8363 18.72 63.4909 19.1127C64.2763 19.6364 65.0618 20.16 65.5854 20.4218C65.7163 20.9455 65.7163 21.6 65.8472 22.2545ZM65.0618 37.0473C64.1454 36.5236 63.2291 36.3927 62.7054 36.5236C62.7054 36.3927 62.7054 36.2618 62.7054 36C62.7054 35.0836 62.7054 34.1673 62.7054 33.2509C63.0981 33.5127 63.4909 33.7745 64.0145 34.0364C64.8 34.4291 65.5854 34.8218 66.1091 34.9527V37.8327C65.8472 37.5709 65.5854 37.3091 65.0618 37.0473ZM66.24 33.3818C65.3236 32.3345 63.7527 31.8109 62.7054 31.8109C62.7054 30.24 62.5745 28.8 62.5745 27.36C62.9672 27.7527 63.8836 28.1455 64.8 28.6691C65.3236 28.9309 65.8472 29.1927 66.24 29.4545V33.3818ZM59.4327 12.6982C58.9091 12.1745 58.5163 11.7818 57.9927 11.52C59.04 11.7818 60.2181 12.4364 61.5272 13.3527C62.8363 14.2691 64.2763 15.5782 64.9309 17.4109C64.9309 17.5418 65.0618 17.6727 65.0618 17.8036C63.7527 16.7564 62.1818 16.4945 61.5272 16.6255C61.5272 16.4945 61.5272 16.3636 61.3963 16.2327C61.0036 14.9236 60.3491 13.6145 59.4327 12.6982ZM51.3163 50.0073C51.3163 50.7927 51.5782 51.84 51.9709 52.3636C50.7927 52.2327 49.4836 52.2327 48.3054 52.1018C48.4363 51.4473 48.3054 50.6618 48.0436 49.8764C49.2218 50.0073 50.2691 50.1382 51.3163 50.0073ZM27.2291 61.7891C26.8363 62.3127 26.4436 62.5745 25.92 62.3127C25.5272 62.1818 25.1345 61.7891 24.8727 61.3964C24.7418 61.1345 24.6109 61.0036 24.3491 60.7418H24.48C24.8727 60.6109 25.1345 60.3491 25.2654 60.0873C25.6582 59.6945 25.7891 59.3018 25.92 58.9091C26.1818 58.3855 26.4436 57.8618 26.5745 57.3382C26.7054 57.6 26.8363 57.8618 27.0982 58.1236C27.6218 58.6473 28.1454 59.04 28.5382 59.04C28.4072 59.3018 28.2763 59.4327 28.1454 59.6945C27.8836 60.6109 27.6218 61.2655 27.2291 61.7891ZM29.4545 58.1236C29.1927 57.2073 28.2763 56.2909 27.36 55.8982C27.8836 54.72 28.2763 53.5418 28.9309 52.4945C29.1927 52.2327 29.3236 51.9709 29.5854 51.5782C29.9782 52.6255 31.1563 54.3273 31.9418 55.1127C30.8945 56.2909 30.1091 57.2073 29.4545 58.1236ZM32.9891 54.3273C32.5963 52.8873 31.5491 51.5782 30.5018 50.9236C30.8945 50.6618 31.4182 50.4 31.9418 50.2691C32.8582 50.0073 34.0363 49.8764 35.0836 49.7455C35.2145 50.6618 35.6072 51.84 36.2618 52.8873C35.8691 53.0182 35.4763 53.1491 35.0836 53.28C34.2982 53.5418 33.6436 53.9345 32.9891 54.3273ZM38.7491 52.3636C38.4872 52.3636 38.2254 52.4945 37.8327 52.4945C37.5709 51.5782 37.1782 50.5309 36.6545 49.6145C37.9636 49.4836 39.2727 49.4836 40.5818 49.4836C40.5818 49.7455 40.7127 50.0073 40.8436 50.4C41.1054 51.1855 41.3672 51.84 41.76 52.1018C40.7127 52.2327 39.6654 52.2327 38.7491 52.3636ZM42.4145 52.1018C42.6763 51.7091 42.9382 50.7927 42.5454 49.8764C42.5454 49.7455 42.4145 49.6145 42.4145 49.6145C43.9854 49.7454 44.9018 49.7454 46.3418 49.8764C46.3418 50.5309 46.4727 51.4473 46.7345 52.1018C45.2945 51.9709 43.8545 51.9709 42.4145 52.1018ZM55.6363 52.3636C54.8509 52.4945 54.0654 52.4945 53.28 52.4945C53.5418 51.84 53.5418 50.7927 53.0182 50.0073H53.1491C54.3272 49.8764 55.3745 49.6145 56.4218 49.3527C56.4218 49.7454 56.5527 50.4 56.8145 50.9236C56.9454 51.3164 57.0763 51.84 57.2072 52.1018C56.6836 52.2327 56.16 52.3636 55.6363 52.3636ZM59.9563 51.3164C59.5636 51.4473 59.1709 51.5782 58.7781 51.7091C58.9091 50.6618 58.3854 49.4836 57.7309 48.8291C58.7781 48.3055 59.6945 47.7818 60.6109 46.9964C60.7418 47.3891 61.0036 47.9127 61.3963 48.4364C61.92 49.2218 62.5745 49.8764 63.0981 49.8764C62.1818 50.5309 61.0036 50.9236 59.9563 51.3164ZM63.8836 49.2218C63.7527 49.3527 63.6218 49.3527 63.4909 49.4836C63.6218 48.96 63.4909 48.1745 62.8363 47.2582C62.3127 46.6036 61.7891 46.2109 61.2654 46.08C61.92 45.1636 62.4436 44.1164 62.5745 43.0691V42.9382C62.9672 43.3309 63.36 43.5927 63.8836 44.1164C64.5381 44.7709 65.1927 45.2945 65.7163 45.5564C65.3236 46.8655 64.8 48.3055 63.8836 49.2218Z" fill="#333333"/>
<path d="M33.7745 20.2909C23.3018 20.6837 14.7927 21.4691 14.7927 21.9927C14.7927 22.5164 23.3018 22.5164 33.9055 22.1237C44.3782 21.7309 52.8873 20.9455 52.8873 20.4218C52.7564 19.8982 44.2473 19.8982 33.7745 20.2909Z" fill="#333333"/>
<path d="M33.5127 28.2764C23.04 28.6691 14.5309 29.4546 14.5309 29.9782C14.5309 30.5018 23.04 30.5018 33.6436 30.1091C44.1163 29.7164 52.6254 28.9309 52.6254 28.4073C52.6254 27.8836 43.9854 27.8836 33.5127 28.2764Z" fill="#333333"/>
<path d="M30.5018 37.3091C21.6 37.7018 14.4 38.4873 14.4 39.0109C14.4 39.5346 21.7309 39.6655 30.6327 39.2727C39.5345 38.88 46.7345 38.2255 46.7345 37.7018C46.7345 37.0473 39.4036 36.9164 30.5018 37.3091Z" fill="#333333"/>
</svg>