<svg width="62" height="62" viewBox="0 0 62 62" fill="none" xmlns="http://www.w3.org/2000/svg">
<path d="M55.6873 12.7382C54.7854 12.2873 53.8836 11.8364 53.2073 11.3855C51.2909 10.0327 50.84 7.21455 49.2618 5.52364C48.2473 4.39637 47.0073 3.94546 46.1054 3.83273C44.1891 3.60728 43.0618 3.83273 43.0618 3.94546C43.0618 4.05819 44.1891 4.05819 45.88 4.5091C46.7818 4.73455 47.7963 5.18546 48.5854 6.20001C48.5854 6.20001 48.5854 6.31273 48.6982 6.31273C48.36 6.31273 48.0218 6.53819 47.6836 6.65092C47.3454 6.76364 47.0073 6.9891 46.7818 7.32728C46.5563 6.76364 46.2182 6.31273 45.9927 5.97455C45.4291 5.29819 44.9782 4.84728 44.4145 4.62182C43.9636 4.39637 43.5127 4.28364 43.2873 4.17092C43.0618 4.17092 42.8363 4.17092 42.8363 4.17092C42.8363 4.28364 43.4 4.28364 44.3018 4.96001C44.64 5.18546 45.0909 5.63637 45.5418 6.20001C45.9927 6.76364 46.3309 7.66546 46.6691 8.56728C47.0073 9.35637 47.2327 10.2582 47.6836 11.16V11.2727C47.6836 11.2727 47.7963 11.4982 47.9091 11.6109C47.9091 11.7236 48.0218 11.7236 48.0218 11.8364C48.36 12.4 48.6982 12.9636 49.2618 13.5273C49.8254 13.9782 50.5018 14.4291 51.1782 14.6546C51.8545 14.9927 52.5309 15.2182 52.9818 15.6691C53.4327 16.12 53.6582 16.7964 53.7709 17.4727C53.8836 18.4873 53.7709 19.5018 53.5454 20.6291V20.8546C52.9818 23.3346 52.1927 25.1382 51.2909 27.7309C50.6145 29.5346 49.8254 31.4509 48.9236 33.3673C45.88 39.5673 41.7091 45.2036 36.7491 50.0509C35.8473 50.9527 34.9454 51.7418 33.9309 52.6436C32.9164 53.6582 31 55.4618 29.5345 55.8C29.0836 55.9127 28.6327 55.8 28.0691 55.5746C26.3782 54.7855 24.9127 53.0945 23.56 51.9673L22.0945 50.6145C21.08 49.7127 20.1782 48.6982 19.1636 47.7964C11.3854 39.5673 6.08727 28.7455 4.50909 17.36C4.39636 16.7964 4.39636 16.2327 4.39636 15.8945C4.39636 15.6691 4.50909 15.5564 4.62181 15.4436C4.73454 15.3309 4.95999 15.1055 5.18545 14.9927C7.10181 13.8655 9.01818 12.4 10.4836 10.8218C11.6109 9.69455 12.6254 8.45455 13.5273 7.10182C13.7527 6.65091 14.0909 6.42546 14.3164 6.08728C15.6691 5.07273 17.5854 5.18546 19.3891 5.29819C20.2909 5.29819 21.1927 5.41091 22.0945 5.41091C28.6327 5.07273 29.76 4.96 36.6363 4.62182C38.6654 4.5091 40.2436 4.39637 41.2582 4.28364C42.2727 4.28364 42.8363 4.39637 42.8363 4.28364C42.8363 4.28364 42.2727 4.05819 41.2582 3.94546C40.1309 3.83273 38.5527 3.94546 36.5236 3.94546C28.1818 3.94546 30.3236 3.94546 21.9818 4.17092C20.1782 4.17092 18.3745 3.83273 16.4582 3.94546C15.4436 4.05819 14.3164 4.28364 13.4145 4.96001C12.9636 5.29819 12.5127 5.7491 12.2873 6.20001C11.3854 7.55273 10.3709 8.68001 9.35635 9.69455C7.8909 11.16 6.19999 12.4 4.28363 13.64C4.05817 13.8655 3.71999 13.9782 3.49454 14.3164C3.26908 14.6546 3.04363 14.9927 2.9309 15.4436C2.81817 16.2327 2.9309 16.7964 2.9309 17.4727C4.50908 28.8582 9.80726 40.1309 17.9236 48.6982C18.9382 49.7127 19.84 50.7273 20.9673 51.6291L22.5454 52.9818C22.9964 53.4327 23.56 53.8836 24.0109 54.3345C25.0254 55.2364 26.04 56.2509 27.3927 56.8146C27.8436 57.04 28.4073 57.1527 28.9709 57.1527C28.9709 57.2655 29.1964 57.3782 29.5345 57.6036C29.9854 57.8291 30.6618 58.28 31.7891 58.0546C33.9309 57.7164 36.0727 55.6873 38.5527 53.5455C41.2582 51.4036 44.1891 48.5855 47.12 44.9782C47.2327 44.8655 47.3454 44.7527 47.4582 44.5273C47.5709 44.5273 47.6836 44.4146 47.7963 44.3018V44.1891C50.5018 40.8073 52.9818 36.8618 55.0109 32.4655C57.2654 27.7309 58.6182 22.7709 59.1818 18.2618C59.2945 17.1346 59.2945 15.7818 58.6182 14.5418C57.7163 13.7527 56.5891 13.3018 55.6873 12.7382ZM57.1527 20.8546C56.8145 20.8546 56.3636 20.7418 55.9127 20.7418C55.4618 20.6291 55.0109 20.6291 54.56 20.5164C54.6727 19.84 54.7854 19.1636 54.7854 18.6C55.5745 18.9382 56.5891 19.0509 57.4909 18.7127C57.4909 19.3891 57.2654 20.0655 57.1527 20.8546ZM56.0254 25.5891C55.4618 25.3636 54.2218 24.9127 53.5454 24.6873C54.1091 23.1091 54.2218 22.5455 54.3345 21.7564C55.1236 22.2073 56.0254 22.32 56.8145 22.2073C56.5891 23.3346 56.3636 24.4618 56.0254 25.5891ZM57.2654 15.5564C57.6036 16.0073 57.7163 16.5709 57.6036 17.2473C57.2654 17.2473 56.7018 17.2473 56.2509 17.2473C55.6873 17.2473 55.1236 17.2473 54.6727 17.2473C54.6727 16.9091 54.56 16.6836 54.4473 16.3455C54.6727 16.3455 55.0109 16.2327 55.3491 16.12C56.1382 15.7818 56.5891 15.3309 56.5891 14.88C56.9273 15.1055 57.1527 15.3309 57.2654 15.5564ZM47.2327 8.2291C47.5709 8.34182 48.0218 8.2291 48.4727 8.00364C48.9236 7.77819 49.2618 7.44001 49.3745 7.10182C49.8254 7.89092 50.1636 8.79273 50.6145 9.80728C49.9382 9.92001 48.8109 10.2582 48.2473 10.5964C47.9091 9.80728 47.5709 9.01819 47.3454 8.34183C47.2327 8.34182 47.2327 8.2291 47.2327 8.2291ZM48.9236 11.8364C49.8254 11.8364 50.6145 11.3855 51.1782 10.9346C51.5163 11.3855 51.8545 11.9491 52.4182 12.2873C52.1927 12.2873 51.9673 12.4 51.8545 12.4C51.2909 12.6255 50.84 12.9636 50.5018 13.1891C49.8254 12.8509 49.3745 12.4 48.9236 11.8364ZM52.08 14.0909C52.1927 14.0909 52.3054 13.9782 52.4182 13.9782C52.8691 13.7527 53.32 13.5273 53.6582 13.1891C54.3345 13.64 55.2363 13.9782 55.9127 14.4291C55.2363 14.4291 54.3345 14.7673 53.8836 15.2182C53.7709 15.1055 53.6582 14.9927 53.5454 14.88C53.0945 14.5418 52.6436 14.2036 52.08 14.0909ZM49.6 34.6073C49.9382 35.2836 50.7273 35.7346 51.5163 35.8473C50.84 37.0873 50.0509 38.3273 49.3745 39.4546C49.1491 39.1164 48.8109 38.7782 48.36 38.5527C48.1345 38.44 47.9091 38.3273 47.7963 38.2146C48.36 36.9746 49.0363 35.8473 49.6 34.6073ZM46.6691 43.2873C46.5564 43.1746 46.4436 43.0618 46.3309 43.0618C45.88 42.7236 45.4291 42.4982 45.0909 42.3855C45.7673 41.3709 46.4436 40.4691 47.0073 39.4546C47.12 39.5673 47.3454 39.68 47.5709 39.9055C48.0218 40.2436 48.4727 40.3564 48.9236 40.3564C48.1345 41.3709 47.4582 42.2727 46.6691 43.2873ZM44.4145 43.2873C44.64 43.6255 44.9782 44.0764 45.4291 44.4146C45.5418 44.5273 45.6545 44.5273 45.7673 44.5273C44.8654 45.6545 43.9636 46.7818 42.9491 47.7964C42.7236 47.6836 42.4982 47.4582 42.2727 47.3455C41.9345 47.12 41.7091 47.0073 41.4836 46.8945C41.8218 46.4436 42.2727 45.9927 42.6109 45.5418C43.2873 44.7527 43.8509 44.0764 44.4145 43.2873ZM31.6764 57.6036C30.8873 57.8291 30.0982 57.6036 29.6473 57.4909C29.4218 57.3782 29.3091 57.3782 29.1964 57.3782C29.4218 57.3782 29.6473 57.3782 29.8727 57.2655C30.6618 57.04 31.3382 56.7018 31.9018 56.2509C32.3527 55.9127 32.6909 55.6873 33.1418 55.3491C33.2545 55.4618 33.3673 55.5746 33.48 55.6873C33.8182 55.9127 34.0436 56.0255 34.3818 56.1382C33.2545 56.9273 32.4654 57.4909 31.6764 57.6036ZM35.1709 55.3491C35.0582 55.0109 34.72 54.6727 34.3818 54.4473L34.2691 54.3345C34.4945 54.1091 34.72 53.8836 34.9454 53.6582C35.6218 52.9818 36.2982 52.4182 37.0873 51.7418C37.2 51.9673 37.3127 52.1927 37.6509 52.4182C37.7636 52.5309 37.9891 52.6436 38.1018 52.7564L37.9891 52.8691C36.7491 53.7709 35.96 54.6727 35.1709 55.3491ZM39.0036 51.8545C38.8909 51.6291 38.6654 51.4036 38.44 51.2909C38.2145 51.1782 37.9891 51.0655 37.8764 50.9527C38.8909 50.0509 39.7927 49.0364 40.6945 48.0218C40.92 48.2473 41.1454 48.5855 41.4836 48.8109C41.5963 48.9236 41.8218 48.9236 41.9345 49.0364C40.92 49.9382 39.9054 50.9527 39.0036 51.8545ZM52.1927 34.4946C51.9673 34.3818 51.6291 34.2691 51.4036 34.0436C50.9527 33.8182 50.5018 33.5927 50.1636 33.48C50.6145 32.4655 51.0654 31.5636 51.4036 30.5491C52.08 31.1127 52.9818 31.4509 53.6582 31.4509C53.5454 31.5636 53.5454 31.7891 53.4327 31.9018C53.0945 32.9164 52.6436 33.7055 52.1927 34.4946ZM54.2218 30.3236C53.6582 29.9855 52.6436 29.5346 51.8545 29.3091C51.9673 28.8582 52.1927 28.4073 52.3054 28.0691C52.5309 27.3927 52.7564 26.6036 53.0945 25.9273C53.7709 26.4909 54.56 26.8291 55.5745 26.8291C55.1236 28.0691 54.6727 29.1964 54.2218 30.3236Z" fill="#333333"/>
<path d="M40.5818 17.2473C40.0181 17.4727 39.5672 17.8109 39.1163 18.1491C38.6654 18.6 38.3272 18.8255 37.8763 19.2764C31.9018 24.6873 33.8182 22.9964 30.5491 25.9273C29.76 26.6037 28.9709 27.28 28.1818 27.7309C27.3927 28.1818 26.4909 28.1818 25.8145 27.9564C25.1382 27.6182 24.4618 26.9418 23.56 26.2655C23.1091 25.9273 22.6582 25.7018 21.9818 25.4764C21.4182 25.3637 20.7418 25.2509 20.1782 25.5891C19.6145 25.8146 19.0509 26.3782 18.9382 27.0546C18.7127 27.6182 18.8254 28.2946 18.9382 28.7455C19.3891 29.76 20.0654 30.3237 20.6291 31C21.1927 31.5637 21.8691 32.0146 22.4327 32.4655C23.6727 33.2546 24.6872 34.0436 25.7018 34.72C26.1527 35.0582 26.6036 35.3964 27.1672 35.6218C27.7309 35.8473 28.2945 35.7346 28.7454 35.6218C29.6472 35.2836 29.9854 34.72 30.3236 34.3818C30.5491 34.0436 30.6618 33.8182 30.6618 33.8182C30.6618 33.8182 30.4363 33.9309 30.0981 34.1564C29.76 34.3818 29.1963 34.8327 28.52 35.0582C28.1818 35.1709 27.7309 35.1709 27.3927 34.9455C27.0545 34.8327 26.6036 34.4946 26.1527 34.0436C24.8 32.8036 22.7709 31.5636 21.3054 30.0982C20.7418 29.5346 20.1781 28.8582 20.0654 28.2946C19.84 27.7309 20.0654 27.0546 20.5163 26.8291C20.9672 26.6036 21.7563 26.8291 22.4327 27.3927C23.1091 27.8436 23.7854 28.7455 24.9127 29.3091C26.04 29.8727 27.5054 29.6473 28.52 29.0836C29.6472 28.52 30.5491 27.8436 31.3381 27.0546C34.2691 24.4618 33.1418 25.4764 38.6654 20.4037C39.0036 20.0655 39.4545 19.6146 39.7927 19.3891C40.1309 19.0509 40.5818 18.8255 40.92 18.6C41.2581 18.3746 41.7091 18.2618 42.0472 18.2618C42.16 18.2618 42.2727 18.2618 42.2727 18.3746C42.2727 18.3746 42.3854 18.4873 42.3854 18.6C42.4981 18.4873 42.2727 18.9382 42.0472 19.2764C41.8218 19.6146 41.4836 19.9527 41.2581 20.2909C40.5818 20.9673 40.0181 21.6437 39.4545 22.32C38.44 23.6727 37.4254 24.9127 36.5236 26.1527C32.9163 30.7746 30.5491 33.48 30.6618 33.7055C30.7745 33.8182 33.48 31.3382 37.3127 26.9418C38.3272 25.8146 39.3418 24.5746 40.4691 23.3346C41.0327 22.7709 41.7091 22.0946 42.3854 21.4182C42.8363 20.8546 43.5127 20.1782 43.8509 19.6146C43.9636 19.5018 43.9636 19.3891 44.0763 19.0509C44.1891 18.8255 44.0763 18.6 44.0763 18.3746C43.9636 18.0364 43.8509 17.6982 43.5127 17.36C43.1745 17.0218 42.7236 16.9091 42.3854 16.9091C41.5963 16.7964 41.0327 17.0218 40.5818 17.2473Z" fill="#333333"/>
</svg>