<svg width="65" height="65" viewBox="0 0 65 65" fill="none" xmlns="http://www.w3.org/2000/svg">
<path d="M58.5 9.33638C57.6727 8.50911 56.7273 7.9182 56.0182 7.68183C55.5454 7.56365 55.1909 7.44547 54.8364 7.32729C54.3636 7.09092 54.0091 6.97274 53.5364 6.97274L52.2364 6.85456C51.4091 6.73638 50.5818 6.73638 49.7545 6.6182C43.2545 6.02729 36.7545 5.90911 30.6091 5.79092C27.5364 5.79092 24.4636 5.79092 21.5091 5.79092C17.2545 5.90911 12.2909 5.55456 8.50908 6.38183C6.97272 6.73638 5.55454 7.9182 4.96363 9.33638C4.37272 10.6364 4.25454 12.1727 4.13636 13.4727C4.01817 14.7727 3.89999 16.0727 3.89999 17.3727C3.89999 17.8455 3.89999 18.3182 3.78181 18.6727C3.66363 18.6727 3.54545 18.6727 3.54545 18.7909C3.54545 18.7909 3.66363 18.9091 3.78181 18.9091C3.30908 28.7182 3.54545 37.8182 3.78181 47.6273C3.89999 49.0455 3.78181 50.3455 4.01817 51.6455C4.25454 52.7091 4.96363 53.5364 5.7909 54.0091C5.7909 54.3637 5.90908 54.8364 6.14545 55.4273C6.38181 56.0182 6.85454 56.7273 7.56363 57.2C8.27272 57.7909 9.21817 58.2637 10.2818 58.5C11.3454 58.7364 12.5273 58.8546 13.7091 58.8546C21.6273 59.0909 20.5636 59.0909 26.5909 59.0909C32.8545 59.0909 38.6454 59.2091 42.7818 59.2091H42.9H43.1364H43.2545C47.1545 59.2091 49.6364 58.9727 49.6364 58.7364C49.6364 58.6182 48.8091 58.5 47.3909 58.2636C47.7454 57.9091 47.6273 57.0818 47.3909 56.2546C47.3909 56.0182 47.2727 55.7818 47.2727 55.5455H48.5727H49.7545C49.7545 55.9 49.9909 56.3727 50.2273 56.8455C50.7 57.6727 51.4091 58.2636 51.8818 58.3818C48.8091 58.6182 48.9273 58.8546 52.1182 58.9727C52.9454 58.9727 53.8909 59.0909 55.0727 58.9727C56.2545 58.8546 57.6727 58.5 58.8545 57.3182C59.8 56.3727 60.3909 55.1909 60.3909 53.8909C60.3909 53.5364 60.5091 53.0636 60.5091 52.7091C60.6273 51.0546 60.8636 49.2818 60.8636 47.3909C60.8636 46.3273 60.9818 45.1455 60.9818 44.0818C60.9818 43.9636 60.9818 43.9636 60.9818 43.8455C61.1 41.1273 61.2182 38.2909 61.2182 35.2182C61.3363 30.8455 61.5727 26.8273 61.4545 23.0455C61.4545 19.2636 61.2182 15.8364 60.3909 13C60.0364 11.4637 59.3273 10.2818 58.5 9.33638ZM58.7364 44.7909H59.3273C59.3273 44.9091 59.3273 47.3909 59.2091 47.9818C58.8545 47.8637 58.3818 47.7455 57.9091 47.6273C57.0818 47.5091 56.3727 47.5091 56.0182 47.7455C56.2545 45.0273 56.2545 42.3091 56.3727 39.5909C56.3727 38.0546 56.4909 36.6364 56.4909 35.1C57.4364 35.5727 58.6182 35.5727 59.4454 35.2182C59.4454 36.1637 59.4454 37.1091 59.3273 38.0546C59.2091 38.0546 59.0909 37.9364 58.9727 37.9364C58.5 37.9364 58.0273 38.0546 57.7909 38.5273C57.5545 39 58.0273 39.4727 58.7364 39.5909H59.2091C59.2091 40.7728 59.2091 41.9546 59.0909 43.1364C58.9727 43.1364 58.8545 43.1364 58.6182 43.1364C57.5545 43.0182 56.7273 43.0182 56.4909 43.4909C56.6091 43.8455 57.4364 44.6727 58.7364 44.7909ZM59.9182 24.9364C59.5636 24.9364 59.3273 24.8182 58.9727 24.8182C58.0273 24.8182 57.2 25.0546 57.0818 25.4091C56.9636 25.8818 57.7909 26.4727 58.9727 26.4727C59.3273 26.4727 59.6818 26.3546 59.9182 26.3546C59.9182 27.3 59.8 28.2455 59.8 29.1909C59.5636 29.0727 59.4454 29.0727 59.2091 29.0727C58.5 28.9546 57.9091 29.1909 57.6727 29.6637C57.5545 30.1364 58.0273 30.7273 58.9727 30.8455H59.6818C59.6818 31.9091 59.5636 33.0909 59.5636 34.1546C59.2091 34.0364 58.6182 34.0364 58.0273 33.9182C57.5545 33.9182 57.0818 33.8 56.6091 33.8C57.0818 19.7364 56.9636 22.3364 56.9636 21.6273C57.6727 22.1 58.8545 22.2182 59.9182 21.7455V24.9364ZM55.9 50.9364C55.9 50.5818 56.0182 50.2273 56.0182 49.8727C56.0182 49.4 56.1363 48.9273 56.1363 48.4546C56.7273 49.1636 58.2636 49.5182 59.3273 49.0455C59.3273 50.2273 59.2091 51.4091 59.0909 52.4727V52.8273C58.7364 52.5909 58.3818 52.3546 57.9091 52C57.0818 51.5273 56.4909 51.0546 55.9 50.9364C55.9 51.0546 55.7818 51.0546 55.9 50.9364ZM57.7909 10.0455C58.5 10.8727 58.9727 11.9364 59.3273 13.2364C59.4454 13.8273 59.5636 14.4182 59.6818 15.0091C59.5636 15.0091 59.3273 14.8909 59.0909 14.8909C58.5 14.8909 57.9091 15.1273 57.6727 15.4818C57.5545 15.9546 58.1454 16.5455 58.9727 16.5455C59.2091 16.5455 59.4454 16.5455 59.6818 16.4273C59.8 17.6091 59.8 18.9091 59.9182 20.2091C59.5636 20.2091 59.2091 20.2091 58.7364 20.3273C58.0273 20.4455 57.4364 20.4455 56.9636 20.6818C56.9636 17.9636 56.9636 15.2455 56.7273 12.5273C56.7273 11.5818 56.7273 10.8727 56.4909 9.92729C56.3727 9.45456 56.1364 8.86365 55.7818 8.39092C56.4909 8.74547 57.2 9.2182 57.7909 10.0455ZM5.19999 17.3727C5.31817 16.0727 5.43635 14.8909 5.55454 13.5909C5.67272 12.2909 5.7909 11.1091 6.38181 10.0455C6.85454 8.98183 7.79999 8.27274 8.98181 7.9182C10.2818 7.68183 11.5818 7.56365 13 7.44547C15.7182 7.32729 18.6727 7.44547 21.6273 7.44547C24.5818 7.44547 27.6545 7.44547 30.6091 7.44547C36.7545 7.56365 43.1364 7.80001 49.6364 8.27274C50.4636 8.39092 51.2909 8.39092 52.1182 8.50911L53.3 8.62729C53.6545 8.62729 53.8909 8.74547 54.1273 8.86365C54.6 9.10001 54.8363 9.57274 54.9545 10.2818C55.0727 10.8727 55.1909 11.8182 55.1909 12.5273C55.3091 14.4182 55.4273 16.3091 55.4273 18.2C55.1909 18.2 54.9545 18.2 54.7182 18.2C54.0091 18.2 53.0636 18.0818 52.1182 17.9637C51.6454 17.8455 51.1727 17.7273 50.8182 17.4909C50.5818 17.3727 50.4636 17.2546 50.3454 17.0182C50.2273 16.7818 49.9909 16.5455 49.8727 16.3091C49.5182 15.7182 49.1636 15.1273 48.6909 14.5364C48.4545 14.3 48.1 13.9455 47.7454 13.7091C47.5091 13.5909 47.2727 13.4727 47.0364 13.4727H46.8H46.6818H46.4454C40.5364 13.2364 42.6636 13.3546 36.2818 13.1182C35.3364 13.1182 34.3909 13 33.2091 13.3546C32.0273 13.7091 31.2 14.6546 30.4909 15.4818C29.9 16.3091 29.4273 17.0182 28.7182 17.4909C28.1273 17.9637 27.3 18.0818 26.4727 18.2C25.6454 18.3182 24.7 18.3182 23.8727 18.3182C20.6818 18.4364 22.8091 18.3182 12.1727 18.6727C9.21818 18.7909 6.85454 18.6727 5.43636 18.6727C5.19999 18.2 5.19999 17.7273 5.19999 17.3727ZM13.4727 57.4364C13.5909 57.0818 13.5909 56.6091 13.5909 56.1364C13.5909 55.3091 13.4727 54.6 13.1182 54.3637C14.6545 54.4818 16.5454 54.6 18.0818 54.6C17.6091 55.3091 17.3727 56.4909 17.6091 57.4364C16.3091 57.4364 13.9454 57.4364 13.4727 57.4364ZM19.0273 57.4364C19.1454 57.0818 19.2636 56.7273 19.2636 56.2546C19.3818 55.6637 19.3818 55.0727 19.2636 54.6C20.9182 54.7182 22.8091 54.7182 24.8182 54.8364C24.5818 55.5455 24.8182 56.6091 25.2909 57.3182C23.1636 57.4364 21.0364 57.4364 19.0273 57.4364ZM26.5909 57.4364C26.7091 57.0818 26.7091 56.4909 26.5909 55.9C26.4727 55.5455 26.3545 55.1909 26.2364 54.9546C27.5364 54.9546 28.8364 55.0727 30.2545 55.0727C29.9 55.7818 29.9 56.6091 30.2545 57.4364C29.1909 57.4364 27.4182 57.4364 26.5909 57.4364ZM36.0454 57.6727C34.7454 57.5546 33.3273 57.5546 31.7909 57.5546C31.7909 56.8455 31.6727 55.7818 31.5545 55.1909C32.9727 55.1909 34.3909 55.3091 35.8091 55.3091C35.4545 55.9 35.5727 56.8455 36.0454 57.6727ZM37.3454 57.6727C37.4636 57.0818 37.3454 55.9 37.1091 55.3091C37.8182 55.3091 42.0727 55.4273 42.1909 55.4273C42.0727 56.1364 42.1909 57.0818 42.3091 57.9091C40.7727 57.9091 39.1182 57.7909 37.3454 57.6727ZM46.5636 58.2637C45.7364 58.1455 44.7909 58.1455 43.7273 58.0273C43.8454 57.3182 43.8454 56.2546 43.6091 55.4273H45.0273H45.7364C45.5 56.6091 45.9727 57.7909 46.5636 58.2637ZM48.5727 54.2455C47.3909 54.2455 46.2091 54.2455 45.0273 54.2455C42.6636 54.2455 40.4182 54.1273 38.2909 54.1273C32.8545 54.0091 17.8454 53.8909 12.5273 53.8909C11.2273 53.8909 10.6364 54.0091 10.6364 54.0091C10.6364 54.1273 11.3454 54.1273 12.5273 54.2455C12.1727 54.4818 11.9364 55.1909 11.9364 56.1364C11.9364 56.6091 12.0545 57.0818 12.1727 57.4364C11.5818 57.4364 10.9909 57.4364 10.5182 57.3182C8.50908 57.0818 7.32726 56.0182 6.73635 55.0727C6.49999 54.7182 6.38181 54.3637 6.26363 54.1273C7.20908 54.4818 8.03635 54.3637 8.62726 54.3637C9.92726 54.2455 10.5182 54.1273 10.5182 54.1273C10.5182 54.0091 9.80908 54.0091 8.62726 54.0091C8.03635 54.0091 7.20908 54.0091 6.38181 53.6546C5.55454 53.3 4.96363 52.5909 4.72726 51.4091C4.4909 50.3455 4.60908 48.9273 4.60908 47.5091C4.60908 36.9909 4.4909 28.4818 5.08181 19.0273C6.49999 19.2637 8.86363 19.5 11.8182 19.6182C14.4182 19.7364 17.4909 19.6182 20.9182 19.6182H23.5182C23.5182 19.6182 25.2909 19.6182 26.3545 19.5C27.3 19.3818 28.4818 19.1455 29.4273 18.5546C30.3727 17.8455 30.9636 16.9 31.5545 16.1909C32.1454 15.4818 32.6182 14.8909 33.3273 14.6546C34.0364 14.4182 34.9818 14.5364 35.9273 14.5364C40.3 14.5364 41.2454 14.6546 46.4454 14.6546H46.5636H46.6818C46.8 14.6546 46.8 14.6546 46.9182 14.7727C47.1545 14.8909 47.3909 15.1273 47.6273 15.3637C48.1 15.8364 48.4545 16.3091 48.8091 16.9C49.0454 17.1364 49.1636 17.3727 49.4 17.7273C49.6363 17.9637 49.9909 18.3182 50.2273 18.4364C50.8182 18.7909 51.4091 18.9091 52 18.9091C53.0636 19.0273 54.0091 18.9091 54.7182 18.9091C54.9545 18.9091 55.1909 18.9091 55.4272 18.7909V21.8637C55.3091 28.0091 55.0727 33.9182 54.9545 39.5909C54.8363 42.4273 54.8363 45.1455 54.6 47.8637C54.6 48.5727 54.4818 49.1637 54.4818 49.8727C54.4818 50.2273 54.4818 50.5818 54.3636 50.8182C54.3636 51.0546 54.2454 51.2909 54.1273 51.5273C53.7727 52.4727 52.8273 53.4182 51.8818 53.7727C50.9364 54.1273 49.7545 54.2455 48.5727 54.2455ZM54.8364 58.1455C53.8909 58.2637 53.0636 58.3818 52.3545 58.3818C52.7091 58.0273 52.2364 57.0818 51.6455 56.1364C51.5273 55.9 51.4091 55.6637 51.2909 55.4273C52.1182 55.3091 52.7091 55.0727 53.5364 54.6C53.7727 55.7818 54.8364 57.2 56.1364 57.7909C55.6636 57.9091 55.3091 58.0273 54.8364 58.1455ZM57.9091 56.6091C57.6727 56.8455 57.4364 57.0818 57.2 57.2C56.9636 56.7273 56.3727 56.1364 55.7818 55.4273C55.1909 54.8364 54.7182 54.1273 54.2454 53.8909C54.7182 53.4182 55.0727 52.9455 55.3091 52.3546C55.6636 52.8273 56.1364 53.3 56.8454 53.6546C57.4364 54.0091 58.1454 54.3637 58.8545 54.3637C58.8545 54.6 58.8545 54.7182 58.7364 54.8364C58.6182 55.5455 58.2636 56.1364 57.9091 56.6091Z" fill="#333333"/>
<path d="M9.69089 15.6C10.2818 15.9546 10.8727 15.9546 11.1091 15.8364C11.4636 15.7182 11.5818 15.6 11.5818 15.4818C11.5818 15.2455 10.8727 15.2455 10.4 14.6546C9.80907 14.0637 10.2818 13.2364 11.1091 13C11.7 12.8818 12.0545 13 12.1727 13.2364C12.4091 13.4728 12.4091 13.9455 12.2909 14.1818C12.0545 14.8909 11.4636 15.1273 11.4636 15.3637C11.4636 15.4818 11.7 15.6 12.0545 15.4818C12.4091 15.4818 12.8818 15.2455 13.3545 14.6546C13.7091 14.1818 14.0636 13.2364 13.5909 12.2909C13.3545 11.8182 12.8818 11.4637 12.4091 11.2273C11.9363 10.9909 11.3454 10.9909 10.8727 11.1091C9.80907 11.2273 8.86362 12.0546 8.74544 13.1182C8.50907 14.4182 9.21816 15.2455 9.69089 15.6Z" fill="#333333"/>
<path d="M17.3727 15.6C17.9636 15.9546 18.5545 15.9546 18.7909 15.8364C19.1454 15.7182 19.2636 15.6 19.2636 15.4818C19.2636 15.2455 18.5545 15.2455 18.0818 14.6546C17.4909 14.0637 17.9636 13.2364 18.7909 13C19.3818 12.8818 19.7364 13 19.8545 13.2364C20.0909 13.4728 20.0909 13.9455 19.9727 14.1818C19.7364 14.8909 19.1454 15.1273 19.1454 15.3637C19.1454 15.4818 19.3818 15.6 19.7364 15.4818C20.0909 15.4818 20.5636 15.2455 21.0364 14.6546C21.3909 14.1818 21.7454 13.2364 21.2727 12.2909C21.0364 11.8182 20.5636 11.4637 20.0909 11.2273C19.6182 10.9909 19.0273 10.9909 18.5545 11.1091C17.4909 11.2273 16.5454 12.0546 16.4273 13.1182C16.0727 14.4182 16.7818 15.2455 17.3727 15.6Z" fill="#333333"/>
<path d="M21.9818 45.7364C15.0091 45.7364 9.45453 46.0909 9.45453 46.5637C9.45453 47.0364 15.0091 47.3909 21.8636 47.3909C28.7182 47.3909 34.2727 47.0364 34.2727 46.5637C34.3909 46.0909 28.8363 45.7364 21.9818 45.7364Z" fill="#333333"/>
<path d="M18.9091 41.3637C24.1091 41.3637 28.3636 41.0091 28.3636 40.5364C28.3636 40.0637 24.1091 39.7091 18.9091 39.7091C13.7091 39.7091 9.45453 40.0637 9.45453 40.5364C9.45453 41.0091 13.7091 41.3637 18.9091 41.3637Z" fill="#333333"/>
<path d="M18.6727 34.9818C23.7545 34.9818 27.8909 34.6273 27.8909 34.1545C27.8909 33.6818 23.7545 33.3273 18.6727 33.3273C13.5909 33.3273 9.45453 33.6818 9.45453 34.1545C9.45453 34.6273 13.5909 34.9818 18.6727 34.9818Z" fill="#333333"/>
<path d="M15.7182 27.5364C19.1454 27.5364 21.9818 27.1818 21.9818 26.7091C21.9818 26.2364 19.1454 25.8818 15.7182 25.8818C12.2909 25.8818 9.45453 26.2364 9.45453 26.7091C9.45453 27.1818 12.2909 27.5364 15.7182 27.5364Z" fill="#333333"/>
<path d="M52.2363 42.5455C52.4727 42.1909 52.4727 41.8364 52.4727 41.6C52.4727 41.0091 52.2363 40.6546 52.2363 40.1818C52 38.5273 51.8818 37.7 51.7636 37.7C51.6454 37.7 51.6454 38.6455 51.6454 40.1818C51.6454 41.0091 52 42.1909 51.1727 42.1909C50.7 42.3091 49.9909 42.3091 49.4 42.3091C46.8 42.4273 48.2182 42.4273 42.6636 42.7818C39.8273 42.9 40.7727 42.9 38.6454 42.9C38.1727 42.9 37.8182 42.9 37.5818 42.6637C37.2273 42.5455 36.8727 42.3091 36.5182 41.9546C36.2818 41.8364 36.2818 41.6 36.2818 41.2455C36.2818 40.8909 36.2818 40.4182 36.4 39.8273C36.5182 37.4637 36.8727 33.3273 37.1091 28.6C37.1091 28.1273 37.2273 27.5364 37.2273 27.0637C37.2273 26.8273 37.3454 26.7091 37.3454 26.5909C37.3454 26.4728 37.4636 26.4728 37.5818 26.3546H37.7C37.7 26.3546 37.9363 26.4728 38.1727 26.5909C38.6454 26.8273 39.2363 27.1818 39.8273 27.3C40.8909 27.5364 41.9545 27.6546 43.0182 27.5364C43.9636 27.5364 45.0273 27.3 45.8545 27.1818C46.3273 27.0637 46.8 27.0637 47.2727 26.9455C47.7454 26.8273 48.1 26.7091 48.4545 26.5909C48.8091 26.4728 49.2818 26.4728 49.5182 26.3546C49.8727 26.3546 50.2273 26.3546 50.2273 26.4728C50.3454 26.4728 50.4636 26.8273 50.4636 27.0637C50.4636 27.4182 50.5818 27.7728 50.5818 28.1273C51.1727 33.9182 51.6454 37.4637 51.8818 37.4637C52.1182 37.4637 52.1182 33.8 51.7636 28.1273C51.7636 27.7728 51.7636 27.4182 51.7636 26.9455C51.6454 26.4728 51.6454 26 51.1727 25.5273C50.5818 25.0546 49.9909 25.0546 49.5182 25.0546C49.0454 25.0546 48.5727 25.1728 48.1 25.1728C47.9818 25.1728 47.8636 25.1728 47.7454 25.2909C47.7454 24.9364 47.7454 24.5818 47.6273 24.2273C47.5091 23.6364 47.0364 22.8091 46.3273 22.2182C45.6182 21.6273 44.6727 21.1546 43.6091 21.1546C42.5454 21.1546 41.3636 21.6273 40.8909 22.4546C40.3 23.1637 40.0636 23.9909 40.0636 24.5818V25.5273C39.7091 25.4091 39.3545 25.2909 39 25.0546C38.7636 24.9364 38.5273 24.7 38.0545 24.5818C37.5818 24.4637 36.9909 24.5818 36.6364 24.8182C36.2818 25.0546 35.9273 25.4091 35.8091 25.7637C35.5727 26.1182 35.5727 26.4728 35.5727 26.8273C35.5727 27.3 35.5727 27.3 35.2182 31.7909C34.7454 39.2364 34.8636 37.8182 34.7454 39.8273C34.7454 40.3 34.6273 40.7727 34.6273 41.4818C34.6273 42.0728 34.9818 42.9 35.5727 43.3727C36.0454 43.6091 36.4 43.9637 36.9909 44.2C37.5818 44.4364 38.1727 44.4364 38.6454 44.4364C40.3 44.3182 39.5909 44.4364 42.6636 44.2C44.3182 43.9637 45.9727 43.8455 47.3909 43.6091C48.1 43.4909 48.8091 43.3727 49.4 43.3727C50.1091 43.2546 50.5818 43.2546 51.2909 43.0182C51.6454 43.1364 52 42.9 52.2363 42.5455ZM41.8363 23.7546C42.1909 23.4 42.7818 23.1637 43.3727 23.1637C44.7909 23.1637 45.7363 24.1091 46.2091 24.9364C46.3273 25.2909 46.5636 25.5273 46.5636 25.7637C46.0909 25.8818 45.6182 26 45.1454 26C43.7273 26.2364 41.9545 26.3546 40.5363 26.1182C40.6545 25.8818 40.6545 25.5273 40.7727 25.1728C41.1273 24.7 41.4818 24.1091 41.8363 23.7546Z" fill="#333333"/>
</svg>