<svg width="60" height="60" viewBox="0 0 60 60" fill="none" xmlns="http://www.w3.org/2000/svg">
<path d="M29.4545 10.8C29.3455 10.9091 34.8 14.7273 35.3455 20.7273C35.7818 24.3273 34.3636 28.8 30.9818 32.1818C25.6364 37.5273 15.1636 35.4545 11.4545 27.7091C9.49091 23.4545 9.92727 18.5454 13.0909 14.5091C16.2545 10.5818 21.8182 9.27272 26.2909 9.92726C28.3636 10.2545 29.3455 10.9091 29.4545 10.8C29.4545 10.6909 28.5818 9.92726 26.4 9.38181C21.9273 8.2909 15.7091 9.4909 12.1091 13.6364C8.50909 17.8909 7.85455 23.4545 10.0364 28.3636C14.1818 37.2 25.9636 39.2727 31.8545 33.1636C35.5636 29.4545 36.9818 24.4364 36.3273 20.6182C36.1091 18.6545 35.2364 17.0182 34.4727 15.7091C33.7091 14.4 32.8364 13.3091 32.0727 12.6545C30.6545 11.1273 29.4545 10.6909 29.4545 10.8Z" fill="#333333"/>
<path d="M56.6182 50.0727C55.9636 48.4364 55.0909 47.2364 54.1091 46.0364C53.1273 44.9454 52.0364 43.9636 51.0545 43.2C50.0727 42.4364 49.0909 41.6727 48.2182 41.0182C45.8182 39.1636 43.8546 38.1818 42.7636 37.8545C43.0909 37.3091 43.4182 36.6545 43.6364 36C43.8546 35.2364 43.7455 34.4727 43.4182 33.8182C43.0909 33.1636 42.6545 32.7273 42.3273 32.4C41.5636 31.7454 40.9091 31.5273 40.3636 31.3091C42.2182 27.4909 42.7636 23.3454 42.2182 19.8545C41.6727 15.0545 37.8546 8.83636 33.4909 6.21818C32.8364 5.78181 32.4 5.67272 32.4 5.67272C32.2909 5.78181 40.2545 10.9091 41.1273 19.9636C41.7818 25.0909 39.8182 31.7455 34.8 36.5454C26.9455 44.5091 11.6727 41.3454 6.32728 30.1091C3.49091 24.3273 3.81818 16.6909 8.72727 10.8C13.3091 5.12727 21.4909 3.27272 27.8182 4.25454C30.7636 4.8 32.1818 5.67272 32.2909 5.56363C32.2909 5.56363 31.9636 5.23636 31.3091 4.90909C30.5455 4.58181 29.4545 4.03636 28.0364 3.70909C21.4909 2.18181 12.7636 3.92727 7.74546 9.92727C2.29091 16.3636 2.07273 24.6545 4.90909 30.7636C6.65455 34.4727 9.6 37.7454 13.3091 39.8182C18.7636 42.8727 25.6364 43.6364 31.5273 40.6909C31.6364 40.8 31.7455 40.9091 31.8545 41.0182C32.2909 41.3454 32.9455 41.8909 33.8182 42.3273C34.8 42.7636 36.2182 42.9818 37.6364 42.4364C37.9636 42.3273 38.1818 42.2182 38.5091 42.1091C38.7273 43.0909 39.7091 45.2727 41.4545 48C42 48.9818 42.6545 49.9636 43.4182 50.9454C44.1818 52.0364 44.9455 53.1273 46.0364 54.2182C47.1273 55.3091 48.4364 56.2909 50.1818 56.7273C51.9273 57.1636 54 56.7273 55.4182 55.3091C56.0727 54.6545 56.7273 53.7818 56.8364 52.8C57.0545 51.8182 56.8364 50.8364 56.6182 50.0727ZM37.0909 41.1273C36.1091 41.5636 35.0182 41.5636 34.1455 41.2364C33.2727 41.0182 32.6182 40.6909 32.0727 40.4727C31.9636 40.4727 31.9636 40.4727 31.9636 40.3636C33.3818 39.6 34.6909 38.6182 35.7818 37.5273C37.5273 35.7818 38.9455 33.8182 40.0364 31.7455C40.4727 32.0727 41.0182 32.5091 41.5636 33.0545C42.2182 33.7091 42.5455 34.5818 42.2182 35.5636C42.1091 36.1091 41.7818 36.5455 41.3455 37.0909C40.9091 37.6364 40.4727 38.1818 40.0364 38.7273C39.0545 39.8182 38.0727 40.6909 37.0909 41.1273ZM54.3273 54.1091C53.3455 55.0909 51.8182 55.4182 50.5091 55.0909C49.2 54.8727 48 54 47.0182 53.1273C46.0364 52.1454 45.1636 51.1636 44.4 50.0727C43.6364 49.0909 42.8727 48.1091 42.3273 47.2364C40.4727 44.6182 39.2727 42.6545 38.7273 41.7818C39.7091 41.2364 40.4727 40.4727 41.2364 39.6C41.6727 39.0545 42.1091 38.5091 42.5455 37.9636C43.2 38.4 44.2909 39.1636 45.8182 40.2545C45.4909 40.2545 45.1636 40.4727 44.9455 40.6909C44.5091 41.1273 44.1818 41.6727 44.4 42C44.6182 42.3273 45.3818 42.3273 45.9273 41.8909C46.3636 41.5636 46.4727 41.1273 46.4727 40.8C47.1273 41.3455 47.4545 41.5636 48 42C47.7818 42.1091 47.4545 42.2182 47.2364 42.4364C46.6909 42.8727 46.2545 43.4182 46.3636 43.8545C46.4727 44.2909 47.4545 44.2909 48.2182 43.6364C48.5455 43.3091 48.8727 42.9818 48.9818 42.6545C49.5273 43.0909 50.0727 43.6364 50.7273 44.1818C50.5091 44.4 50.1818 44.6182 49.8545 44.9455C48.9818 45.7091 48.2182 46.3636 48.3273 46.8C48.4364 47.2364 49.7455 47.1273 50.8364 46.1455C51.1636 45.8182 51.4909 45.4909 51.6 45.1636C52.1455 45.7091 52.5818 46.1455 53.1273 46.8C53.1273 46.9091 53.2364 46.9091 53.2364 47.0182C53.0182 47.1273 52.9091 47.1273 52.6909 47.2364C52.1455 47.5636 51.9273 48.1091 52.0364 48.5455C52.1455 48.9818 52.9091 48.9818 53.5636 48.5455C53.7818 48.4364 53.8909 48.2182 54 48.1091C54.3273 48.5455 54.6545 48.9818 54.8727 49.5273C54.6545 49.6364 54.5455 49.7455 54.3273 49.8545C54 50.1818 53.7818 50.7273 54 51.0545C54.2182 51.4909 54.8727 51.4909 55.4182 50.9454C55.5273 52.2545 55.2 53.3454 54.3273 54.1091Z" fill="#333333"/>
</svg>