<svg width="70" height="70" viewBox="0 0 70 70" fill="none" xmlns="http://www.w3.org/2000/svg">
<path d="M66.1818 53.9636C66.1818 53.7091 66.1818 53.4545 66.1818 53.2V52.3091C66.1818 51.1636 66.1818 50.0182 66.1818 48.8727C66.1818 47.7273 66.1818 46.5818 66.1818 45.4364V43.7818C66.1818 43.2727 66.1818 42.7636 66.1818 42C66.0546 41.2364 65.5455 40.6 65.1636 40.2182C64.7818 39.8364 64.4 39.4545 64.1455 39.0727C63.3818 38.3091 62.7455 37.5454 62.1091 36.7818C60.7091 35.3818 59.4364 33.6 57.5273 32.8364C55.6182 32.0727 53.8364 32.3273 52.3091 32.3273C47.4727 32.4545 44.0364 32.5818 42.8909 32.7091C42.8909 31.8182 43.0182 30.4182 43.0182 28.5091C43.0182 26.8545 43.1455 24.9454 42.8909 22.5273C42.7637 21.3818 42.5091 19.9818 41.6182 18.8364C41.2364 18.2 40.6 17.6909 39.9637 17.3091C39.3273 16.9273 38.5637 16.6727 37.6727 16.5454C35.3818 16.2909 33.0909 16.2909 30.5455 16.2909C31.1818 15.7818 31.8182 14.8909 32.2 13.8727C32.5818 12.7273 32.8364 11.3273 32.0727 9.92726C31.6909 9.16363 31.1818 8.65454 30.5455 8.27272C29.9091 7.8909 29.2727 7.76363 28.6364 7.76363C27.4909 7.63635 26.4727 7.8909 25.5818 8.27272C24.8182 8.52726 24.3091 8.90908 24.0546 9.2909C23.8 8.90908 23.5455 8.52726 23.2909 8.14545C22.0182 6.74545 19.8546 5.85454 17.5636 6.36363C15.2727 6.87272 13.7455 8.65454 13.2364 10.5636C12.7273 12.4727 13.2364 14.2545 14.1273 15.4C14.5091 15.9091 15.0182 16.2909 15.4 16.5454C14.8909 16.5454 14.5091 16.5454 14 16.5454C13.1091 16.5454 11.9636 16.4182 10.9455 16.5454C10.0546 16.2909 8.9091 16.5454 7.89092 16.9273C6.87274 17.4364 5.85455 18.2 5.09092 19.2182C3.69092 21.2545 3.69092 23.8 3.81819 25.9636C3.94546 31.4364 4.07274 33.6 4.45455 42.3818C4.45455 43.4 4.45455 44.5454 4.83637 45.6909C4.96364 46.0727 5.09092 46.4545 5.34546 46.8364C5.09092 46.9636 4.83637 47.0909 4.58183 47.3454C4.32728 47.7273 4.20001 48.2364 4.07274 48.7454C3.94546 49.2545 3.81819 49.7636 3.81819 50.4C3.69092 51.5454 3.69092 52.8182 3.69092 54.3454C3.69092 55.1091 3.69092 55.8727 3.81819 56.6363C3.94546 57.4 4.20001 58.4182 5.21819 59.1818C5.85455 59.5636 6.36365 59.6909 6.74546 59.6909C7.76365 59.8182 8.65455 59.6909 9.41819 59.8182C11.2 59.8182 9.80001 59.8182 13.4909 59.9454C13.6182 60.4545 13.7455 60.9636 14.1273 61.4727C15.4 63.5091 17.6909 64.4 19.7273 64.1454C21.7636 63.8909 23.2909 62.4909 23.8 61.0909C23.9273 60.8363 23.9273 60.4545 24.0546 60.2H35.6364H38.1818C39.0727 60.2 39.9636 60.2 40.9818 59.9454C41.3636 59.8182 41.8727 59.5636 42.2546 59.3091C42.8909 59.3091 42.1273 59.3091 47.7273 59.5636C47.8545 60.2 47.9818 60.8363 48.3636 61.4727C49.6364 63.5091 51.9273 64.4 53.9636 64.1454C56 63.8909 57.5273 62.4909 58.0364 61.0909C58.1636 60.7091 58.2909 60.3272 58.2909 59.9454H61.4727C62.4909 59.9454 63.6364 60.0727 64.9091 59.4363C65.2909 59.3091 65.5455 58.9272 65.8 58.6727C66.0546 58.2909 66.1818 57.9091 66.1818 57.6545C66.3091 57.0182 66.3091 56.3818 66.3091 55.8727C66.3091 55.1091 66.1818 54.4727 66.1818 53.9636ZM37.5455 17.5636C38.8182 17.6909 39.9636 18.3273 40.7273 19.2182C41.3636 20.1091 41.7455 21.3818 41.8727 22.4C42.1273 24.4364 42.1273 26.2182 42.2546 27.7454C40.9818 27.4909 36.4 27.2364 30.5455 27.1091C30.4182 22.5273 30.1636 18.8364 29.9091 17.4364C32.5818 17.4364 35.1273 17.4364 37.5455 17.5636ZM41.7455 44.4182C41.6182 45.5636 41.3636 46.7091 40.4727 47.2182C39.5818 47.8545 38.1818 47.9818 36.7818 47.9818C34.6182 47.9818 32.3273 47.9818 29.7818 47.9818C30.0364 46.4545 30.2909 42.2545 30.4182 36.7818C36.4 36.6545 40.9818 36.4 42.2546 36.1454C42.2546 36.7818 42.1273 37.6727 42.1273 38.5636C42 40.0909 41.8727 42.1273 41.7455 44.4182ZM29.4 47.9818C26.0909 47.9818 22.5273 47.9818 18.7091 47.9818C18.9636 46.4545 19.2182 42.2545 19.3455 36.7818H28.6364C28.8909 42.2545 29.1455 46.4545 29.4 47.9818ZM6.49092 45.1818C6.23637 44.2909 6.23637 43.2727 6.23637 42.2545C6.1091 38.1818 6.1091 39.7091 5.98183 36.2727C7.89092 36.5273 12.2182 36.7818 17.6909 36.7818C17.8182 42.2545 18.0727 46.5818 18.3273 47.9818C17.6909 47.9818 17.0546 47.9818 16.4182 47.9818C14.5091 47.9818 12.6 47.8545 10.5636 47.6C9.54546 47.4727 8.65455 47.3454 7.89092 46.9636C7.12728 46.5818 6.74546 46.0727 6.49092 45.1818ZM5.72728 28.2545C7.38183 28.5091 11.8364 28.7636 17.6909 28.8909V35C12.2182 35.1273 7.89092 35.2545 5.98183 35.5091C5.85455 31.6909 5.85455 33.0909 5.72728 28.2545ZM19.4727 35C19.4727 33.0909 19.4727 31.1818 19.4727 28.8909H28.7636V35C27.1091 35 22.5273 35 19.4727 35ZM19.3455 27.1091C19.2182 22.7818 19.0909 19.4727 18.8364 17.8182C22.5273 17.6909 26.0909 17.5636 29.4 17.4364C29.1455 18.8364 28.8909 22.4 28.7636 26.9818C25.5818 27.1091 22.5273 27.1091 19.3455 27.1091ZM26.0909 9.2909C26.7273 9.16363 27.6182 9.03635 28.5091 9.2909C29.4 9.41817 30.1636 9.92726 30.5455 10.5636C31.0546 11.7091 30.9273 13.6182 29.5273 15.2727C29.2727 15.6545 29.0182 15.9091 28.7636 16.1636C27.3636 16.1636 25.8364 16.1636 24.3091 16.2909C24.5636 15.7818 24.9455 14.3818 24.9455 12.6C24.9455 11.8364 24.9455 10.8182 24.5636 9.79999C24.9455 9.54544 25.4546 9.41817 26.0909 9.2909ZM15.0182 10.6909C15.4 9.41817 16.6727 8.14544 18.0727 7.76362C19.6 7.38181 21.2546 8.01817 22.1455 9.03635C23.1636 9.92726 23.4182 11.3273 23.5455 12.4727C23.6727 14.2545 23.6727 15.5273 23.8 16.1636C21.6364 16.1636 19.4727 16.2909 17.1818 16.2909C16.6727 15.9091 15.9091 15.4 15.2727 14.3818C14.8909 13.3636 14.5091 12.0909 15.0182 10.6909ZM5.60001 22.7818C5.72728 21.7636 5.98183 20.8727 6.49092 20.2364C7.5091 18.7091 9.29092 18.0727 11.2 17.9454C12.0909 17.8182 13.1091 17.9454 14.1273 17.9454H18.2C17.9455 19.6 17.8182 22.9091 17.6909 27.2364C11.8364 27.3636 7.38183 27.6182 5.72728 27.8727C5.60001 24.3091 5.60001 25.8364 5.60001 24.3091C5.60001 23.8 5.60001 23.2909 5.60001 22.7818ZM39.2 58.5454C39.2 58.2909 39.3273 58.0363 39.3273 57.7818C39.3273 57.0182 39.0727 56.2545 38.5636 56.1273C38.0546 56 37.4182 56.7636 37.5455 57.9091C37.5455 58.1636 37.5455 58.4182 37.6727 58.6727C34.6182 58.5454 34.8727 58.5454 34.1091 58.5454C34.1091 58.4182 34.1091 58.1636 34.2364 57.9091C34.3636 56.6364 33.8546 55.6182 33.3455 55.6182C32.8364 55.6182 32.4546 56.6364 32.4546 57.7818V58.4182C31.5636 58.4182 30.5455 58.4182 29.5273 58.4182C29.6546 58.1636 29.7818 57.7818 29.7818 57.4C29.7818 56.5091 29.4 55.7454 28.8909 55.7454C28.3818 55.7454 28 56.3818 27.8727 57.4C27.8727 57.7818 27.8727 58.1636 28 58.4182C27.3636 58.4182 26.7273 58.4182 26.0909 58.4182C26.3455 58.1636 26.4727 57.7818 26.3455 57.2727C26.2182 56.3818 25.7091 55.8727 25.3273 55.8727C24.8182 56 24.5637 56.6364 24.5637 57.4C24.5637 57.7818 24.6909 58.1636 24.9455 58.4182C24.5637 58.4182 24.1818 58.4182 23.8 58.4182C23.6727 58.1636 23.6727 58.0364 23.5455 57.7818C23.1636 57.0182 22.9091 56.7636 22.7818 56.8909C22.6546 57.0182 22.7818 57.4 22.9091 58.0364C23.0364 58.6727 23.0364 59.6909 22.5273 60.7091C22.0182 61.6 20.8727 62.4909 19.4727 62.6182C18.0727 62.7454 16.4182 61.9818 15.6546 60.7091C15.2727 60.0727 15.1455 59.3091 15.1455 58.5454C15.2727 57.7818 15.5273 57.1454 16.0364 56.6364C16.9273 55.6182 18.3273 55.2364 19.3455 55.2364C20.4909 55.3636 21.2546 55.8727 21.7636 56.2545C22.2727 56.6364 22.5273 57.0182 22.6546 56.8909C22.7818 56.8909 22.6546 56.3818 22.2727 55.7454C21.8909 55.1091 21 54.2182 19.4727 53.8364C18.0727 53.5818 16.0364 53.8364 14.6364 55.3636C14 56.1273 13.4909 57.0182 13.2364 58.1636V58.2909C12.6 58.2909 11.9636 58.2909 11.3273 58.2909C11.4546 57.9091 11.5818 57.5273 11.5818 57.0182C11.5818 56.1273 11.0727 55.3636 10.5636 55.3636C10.0546 55.3636 9.67274 56.1273 9.80001 57.1454C9.80001 57.5273 9.92729 58.0364 10.0546 58.2909C9.29092 58.2909 8.40001 58.2909 7.63638 58.4182C7.76365 58.1636 7.89092 57.7818 7.89092 57.2727C7.89092 56.3818 7.63638 55.6182 7.12729 55.6182C6.61819 55.4909 6.1091 56.2545 6.1091 57.2727C6.1091 57.6545 6.23638 58.0364 6.36365 58.2909C6.23638 58.2909 6.1091 58.1636 5.98183 58.1636C5.47274 57.9091 5.21819 57.2727 5.09092 56.5091C4.96365 55.8727 4.96365 55.1091 4.83638 54.3454C4.7091 52.9454 4.7091 51.6727 4.7091 50.5273C4.7091 49.3818 4.7091 48.4909 4.96365 47.8545C5.09092 47.6 5.21819 47.4727 5.34547 47.4727C5.72729 47.9818 6.36365 48.3636 6.87274 48.6182C8.01819 49.1273 9.16365 49.2545 10.1818 49.3818C12.2182 49.6364 14.2546 49.6364 16.1636 49.7636C23.9273 49.6364 30.8 49.5091 36.6546 49.3818C38.1818 49.2545 39.7091 49.1273 40.9818 48.2364C41.2364 47.9818 41.4909 47.7273 41.7455 47.4727C41.7455 49 41.8727 51.6727 41.7455 55.3636C41.7455 56.1273 41.7455 56.8909 41.6182 57.4C41.4909 58.0364 41.1091 58.2909 40.4727 58.4182C40.2182 58.5454 39.7091 58.5454 39.2 58.5454ZM64.5273 57.1454C64.4 57.5273 64.4 57.6545 64.1455 57.7818C63.5091 58.1636 62.4909 58.1636 61.4727 58.1636C60.3273 58.1636 59.1818 58.1636 58.1636 58.1636C58.0364 57.9091 58.0364 57.7818 57.9091 57.5273C57.5273 56.7636 57.2727 56.5091 57.1455 56.6363C57.0182 56.7636 57.1455 57.1454 57.2727 57.7818C57.4 58.4182 57.4 59.4364 56.8909 60.4545C56.3818 61.3454 55.2364 62.2364 53.8364 62.3636C52.4364 62.4909 50.7818 61.7273 50.0182 60.4545C49.6364 59.8182 49.5091 59.0545 49.5091 58.2909C49.6364 57.5273 49.8909 56.8909 50.4 56.3818C51.2909 55.3636 52.6909 54.9818 53.7091 54.9818C54.8546 55.1091 55.6182 55.6182 56.1273 56C56.6364 56.3818 56.8909 56.7636 57.0182 56.6363C57.1455 56.6363 57.0182 56.1273 56.6364 55.4909C56.2546 54.8545 55.3636 53.9636 53.8364 53.5818C52.4364 53.3273 50.4 53.5818 49 55.1091C48.3636 55.8727 47.8546 56.7636 47.6 57.9091V58.1636C45.5637 58.1636 43.7818 58.2909 42.6364 58.4182C42.7636 58.1636 42.8909 57.7818 43.0182 57.5273C43.1455 56.6363 43.0182 55.8727 43.1455 55.1091C43.1455 50.9091 42.6364 47.8545 42.2546 46.5818C42.3818 46.4545 42.3818 46.3273 42.3818 46.2C42.6364 45.5636 42.6364 44.9273 42.6364 44.2909C42.6364 42 42.6364 39.9636 42.6364 38.3091C42.6364 33.7273 42.5091 31.0545 42.1273 35.5091C40.9818 35.2545 36.4 34.8727 30.2909 34.8727C30.2909 32.9636 30.2909 31.0545 30.2909 28.7636C36.1455 28.6363 40.7273 28.3818 42 28.1273C42 28.2545 42.1273 31.0545 42.2546 32.4545C42.1273 32.4545 42.1273 32.4545 42.1273 32.5818C42.1273 32.5818 42.2546 32.5818 42.2546 32.7091C42.3818 33.6 42.3818 33.6 42.5091 32.7091C43.6546 32.9636 47.0909 33.2182 51.9273 33.3454C53.4546 33.3454 55.1091 33.3454 56.6364 33.9818C58.0364 34.6182 59.1818 36.1454 60.5818 37.6727C61.2182 38.4364 61.9818 39.2 62.6182 39.9636C63.2546 40.7273 64.2727 41.6182 64.2727 42.1273V43.6545C64.2727 43.6545 64.2727 44.8 64.2727 45.3091C64.2727 47.7273 64.2727 50.9091 64.2727 52.1818V53.9636C64.2727 54.4727 64.4 55.1091 64.4 55.6182C64.5273 56.2545 64.5273 56.7636 64.5273 57.1454Z" fill="#333333"/>
<path d="M57.7818 43.0182C57.1455 42.1273 56.5091 40.9818 55.6182 40.0909C54.7273 39.2 53.8364 38.3091 52.6909 37.8C51.6727 37.1636 50.5273 36.6545 49.2546 36.6545C48.6182 36.6545 47.8546 36.9091 47.3455 37.4182C46.8364 37.9273 46.5818 38.5636 46.5818 39.0727C46.3273 40.8545 46.8364 42.2545 46.8364 43.7818C46.8364 44.4182 46.9636 44.9273 47.0909 45.4364C47.3455 46.3273 47.9818 46.7091 47.9818 46.5818C48.1091 46.4545 47.8546 46.0727 47.7273 45.3091C47.7273 44.9273 47.7273 44.4182 47.8546 43.7818C47.9818 42.3818 47.7273 40.6 47.9818 39.3273C48.2364 38.5636 48.4909 38.3091 49.2546 38.3091C50.0182 38.3091 50.9091 38.6909 51.8 39.3273C52.6909 39.8364 53.4546 40.6 54.2182 41.3636C54.9818 42.1273 55.6182 43.0182 56.2546 44.0364C56.8909 44.9273 57.2727 45.8182 57.0182 46.0727C56.8909 46.4545 56 46.8364 55.2364 46.8364C54.4727 46.8364 53.4546 46.8364 52.6909 46.9636C51.1636 47.0909 49.8909 47.0909 49.1273 46.9636C48.3636 46.8364 47.9818 46.5818 47.8546 46.5818C47.7273 46.5818 47.9818 47.2182 48.8727 47.6C49.7636 47.9818 51.0364 48.1091 52.6909 48.2364C53.4546 48.2364 54.2182 48.3636 55.2364 48.3636C55.7455 48.3636 56.2546 48.3636 56.8909 48.1091C57.4 47.9818 58.1636 47.6 58.5455 46.8363C58.6727 46.4545 58.8 46.0727 58.8 45.6909C58.8 45.3091 58.6727 44.9273 58.5455 44.6727C58.4182 44.0364 58.1636 43.5273 57.7818 43.0182Z" fill="#333333"/>
</svg>